<?xml version="1.0" encoding="UTF-8"?>
<svg width="239px" height="178px" viewBox="0 0 239 178" version="1.1" xmlns="http://www.w3.org/2000/svg" xmlns:xlink="http://www.w3.org/1999/xlink">
    <title>Group</title>
    <g id="Page-1" stroke="none" stroke-width="1" fill="none" fill-rule="evenodd">
        <g id="Group" transform="translate(3.4252, 0)" stroke-width="5">
            <path d="M170.206779,107.445059 C171.158082,129.220995 163.078388,140.108963 145.967698,140.108963 C128.857008,140.108963 99.8162142,140.108963 58.8453179,140.108963 L23.5170891,172.223267 L23.5170891,140.108963 C7.83902971,137.963614 0,131.267548 0,120.020764 C0,108.773981 0,86.9119796 0,54.4347602 C3.07758492,41.1794554 10.0704274,34.551803 20.9785274,34.551803 C31.8866274,34.551803 45.7758218,34.551803 62.6461106,34.551803" id="Path" stroke="#4B9FD6"></path>
            <path d="M84.5747974,2.5 L211.574797,2.5 C217.511858,2.5 222.886858,4.90646947 226.777593,8.7972042 C230.668328,12.6879389 233.074797,18.0629389 233.074797,24 L233.074797,87.1133625 C233.074797,92.6819052 230.842213,97.7290165 227.223251,101.408338 C223.076092,105.624666 217.108471,108.045254 210.593597,107.395224 L210.247125,140.657323 L174.498109,107.5 L84.5747974,107.5 C78.6377363,107.5 73.2627363,105.093531 69.3720016,101.202796 C65.4812668,97.3120611 63.0747974,91.9370611 63.0747974,86 L63.0747974,24 C63.0747974,18.0629389 65.4812668,12.6879389 69.3720016,8.7972042 C73.2627363,4.90646947 78.6377363,2.5 84.5747974,2.5 Z" id="Rectangle-2" stroke="#3C4C5D"></path>
        </g>
    </g>
</svg>